<?xml version="1.0" standalone="no"?>
<!DOCTYPE svg PUBLIC "-//W3C//DTD SVG 20010904//EN"
 "http://www.w3.org/TR/2001/REC-SVG-20010904/DTD/svg10.dtd">
<svg version="1.0" xmlns="http://www.w3.org/2000/svg"
 width="500.000000pt" height="500.000000pt" viewBox="0 0 500.000000 500.000000"
 preserveAspectRatio="xMidYMid meet">
<metadata>
Created by potrace 1.16, written by Peter Selinger 2001-2019
</metadata>
<g transform="translate(0.000000,500.000000) scale(0.100000,-0.100000)"
fill="#000000" stroke="none">
<path d="M2500 4125 c0 -14 55 -25 81 -16 27 9 35 4 168 -127 187 -183 206
-200 233 -206 13 -3 88 -7 168 -8 l145 -3 107 -105 c58 -58 125 -127 147 -153
l41 -48 0 -114 0 -113 -42 -50 c-24 -27 -61 -64 -82 -83 l-39 -34 -152 -5
c-115 -4 -156 -9 -170 -20 -15 -12 -72 -16 -324 -20 l-306 -5 -17 -160 c-9
-88 -17 -170 -17 -182 -1 -21 -6 -23 -61 -23 -56 0 -60 2 -75 30 -9 17 -28 36
-42 43 l-26 11 7 143 7 143 -172 -2 -173 -3 -42 -110 c-94 -247 -150 -380
-159 -380 -12 0 -26 90 -51 328 l-18 167 -175 -2 -174 -3 -106 -480 c-58 -264
-112 -490 -119 -502 -16 -29 -15 -48 4 -67 21 -22 61 -20 81 4 16 19 30 20
203 20 l185 0 114 -113 c63 -61 130 -124 149 -139 l35 -28 287 0 287 0 80 -75
c70 -65 80 -78 75 -101 -9 -47 57 -74 93 -38 29 30 -4 84 -52 84 -16 0 -54 27
-108 75 l-85 75 -287 0 c-159 0 -294 4 -302 9 -7 5 -73 68 -145 140 l-133 131
-190 0 c-157 0 -193 3 -203 15 -11 13 -1 15 79 15 86 0 91 1 96 23 2 12 14 78
25 147 33 200 73 380 86 380 12 0 15 -11 60 -283 l27 -168 116 3 115 3 105
222 c58 122 112 222 119 223 15 0 11 -111 -14 -359 -8 -79 -14 -154 -14 -167
l0 -24 129 0 129 0 7 144 c7 141 8 145 31 150 13 4 34 20 46 36 19 26 28 30
70 30 58 0 57 8 23 -184 -14 -77 -25 -148 -25 -158 0 -17 12 -18 144 -18 l143
0 98 -102 c53 -57 101 -111 106 -120 5 -9 9 -37 9 -62 0 -40 -3 -47 -29 -60
-73 -38 -43 -156 39 -156 42 0 90 47 90 87 0 30 -28 64 -62 76 -14 5 -18 18
-18 62 l0 55 -91 100 c-50 55 -99 105 -110 110 -23 13 -23 25 -7 212 l11 138
44 0 43 0 0 -62 c0 -81 8 -92 164 -251 l126 -127 1 -168 c0 -248 -2 -239 112
-357 53 -55 98 -97 101 -94 3 2 -39 49 -92 104 l-97 100 -5 212 -5 212 -142
144 -143 144 0 71 0 72 89 0 90 0 11 58 c25 123 28 119 29 -38 l1 -156 123
-124 122 -124 5 -172 c5 -170 5 -171 35 -215 28 -41 73 -87 185 -188 l44 -41
126 2 125 2 -119 3 -118 4 -85 77 c-47 42 -105 101 -129 130 l-44 54 0 165 c0
90 -4 172 -9 181 -5 9 -61 70 -125 136 l-116 118 0 269 0 269 33 0 34 0 22
105 c12 58 20 114 16 125 -6 19 -2 20 135 20 103 0 148 4 168 14 32 17 145
131 161 163 6 12 11 72 11 138 l0 116 -58 62 c-115 123 -237 239 -260 248 -13
5 -88 9 -167 9 l-143 0 -44 36 c-23 20 -102 96 -174 170 l-130 134 -67 0 c-37
0 -67 -2 -67 -5z m463 -1335 l47 0 0 -87 0 -88 -118 -3 c-105 -2 -119 0 -141
18 -22 19 -23 25 -16 88 4 37 9 71 12 76 3 5 42 6 87 2 45 -3 102 -6 129 -6z
m-535 -165 c2 -2 1 -48 -4 -102 l-9 -98 -47 -3 c-43 -3 -48 -1 -62 27 -9 16
-29 35 -46 43 -23 10 -30 19 -30 40 0 22 7 31 35 42 19 8 40 26 46 40 10 22
16 24 62 20 28 -2 52 -6 55 -9z"/>
<path d="M3323 4088 c-23 -30 -23 -49 2 -73 26 -27 45 -25 82 7 20 18 32 19
173 13 l152 -6 42 -34 c22 -20 57 -54 76 -77 19 -24 50 -56 69 -73 19 -16 61
-56 93 -87 32 -32 58 -53 58 -48 0 12 -49 69 -90 105 -19 16 -78 75 -131 130
l-97 100 -166 3 c-161 3 -167 4 -191 28 -26 26 -57 31 -72 12z"/>
<path d="M3707 3692 c-23 -25 -21 -54 3 -85 19 -23 20 -40 20 -237 0 -175 -3
-218 -16 -246 -9 -19 -62 -77 -117 -129 l-101 -95 -77 0 c-43 0 -90 -5 -106
-11 -40 -15 -91 -72 -98 -111 -3 -18 -5 -142 -3 -275 l3 -242 63 -63 c54 -55
62 -68 62 -101 0 -30 5 -40 24 -49 31 -13 50 -6 72 26 15 24 15 28 0 51 -12
18 -25 25 -49 25 -26 0 -45 12 -92 56 l-60 55 -3 257 c-2 241 -1 259 17 289
33 53 61 65 162 69 l91 4 81 72 c44 40 100 100 124 133 l43 59 0 224 0 224 25
20 c32 25 32 51 -1 77 -33 26 -46 26 -67 3z"/>
<path d="M3870 3702 c-44 -13 -51 -62 -15 -94 l25 -22 0 -230 c0 -214 2 -233
20 -261 19 -28 20 -48 20 -355 l0 -326 -48 -52 -48 -52 -75 -1 c-41 0 -94 -1
-118 -3 -32 -2 -50 3 -62 15 -30 30 -53 38 -74 27 -27 -15 -35 -28 -35 -60 0
-54 84 -73 103 -24 5 13 25 16 112 16 130 0 155 10 220 85 l50 59 3 275 c4
320 0 370 -34 410 -24 29 -24 30 -24 252 l0 223 26 27 c19 20 25 34 20 52 -6
25 -42 47 -66 39z"/>
<path d="M2873 3520 l-108 -100 -238 0 -238 0 -23 27 c-18 21 -28 25 -49 19
-15 -3 -34 -17 -43 -30 -20 -31 -6 -60 36 -74 26 -9 34 -8 59 14 29 24 30 24
257 25 126 0 237 3 246 7 9 4 60 48 113 97 53 50 104 92 113 95 10 3 67 3 128
0 l110 -5 72 -73 c79 -78 92 -102 92 -163 0 -55 -20 -99 -64 -137 -34 -29 -42
-32 -105 -32 -59 0 -70 3 -91 25 -13 14 -31 25 -40 25 -39 0 -66 -70 -38 -98
18 -18 65 -14 80 6 10 15 31 20 95 25 76 5 85 8 118 38 46 44 65 86 65 147 0
74 -11 93 -100 182 l-80 80 -130 0 -130 0 -107 -100z"/>
<path d="M1380 1770 c-42 -42 -12 -100 51 -100 37 0 46 -6 114 -77 l73 -78
360 -5 c292 -4 363 -8 378 -19 10 -8 49 -47 85 -85 l66 -71 189 -5 c104 -3
191 -5 193 -3 2 1 -8 7 -23 13 -15 5 -100 10 -189 10 l-162 0 -62 67 c-35 36
-78 77 -95 90 l-32 23 -338 0 c-277 0 -344 3 -367 15 -15 7 -55 44 -87 81 -46
52 -58 72 -56 94 4 33 -27 70 -58 70 -11 0 -29 -9 -40 -20z"/>
</g>
</svg>
